<svg width="22" height="17" viewBox="0 0 22 17" fill="none" xmlns="http://www.w3.org/2000/svg">
<path d="M18.27 1.58C16.94 0.96 15.5 0.51 14 0.25C13.9736 0.250376 13.9485 0.261159 13.93 0.28C13.75 0.61 13.54 1.04 13.4 1.37C11.809 1.13015 10.191 1.13015 8.6 1.37C8.46 1.03 8.25 0.61 8.06 0.28C8.05 0.26 8.02 0.25 7.99 0.25C6.49 0.51 5.06 0.96 3.72 1.58C3.71 1.58 3.7 1.59 3.69 1.6C0.969995 5.67 0.219995 9.63 0.589995 13.55C0.589995 13.57 0.599995 13.59 0.619995 13.6C2.42 14.92 4.15 15.72 5.86 16.25C5.89 16.26 5.91999 16.25 5.93 16.23C6.33 15.68 6.69 15.1 7 14.49C7.02 14.45 7 14.41 6.96 14.4C6.39 14.18 5.85 13.92 5.32 13.62C5.28 13.6 5.27999 13.54 5.31 13.51C5.42 13.43 5.52999 13.34 5.64 13.26C5.66 13.24 5.69 13.24 5.71 13.25C9.15 14.82 12.86 14.82 16.26 13.25C16.28 13.24 16.31 13.24 16.33 13.26C16.44 13.35 16.55 13.43 16.66 13.52C16.7 13.55 16.7 13.61 16.65 13.63C16.13 13.94 15.58 14.19 15.01 14.41C14.97 14.42 14.96 14.47 14.97 14.5C15.29 15.11 15.65 15.69 16.04 16.24C16.07 16.25 16.1 16.26 16.13 16.25C17.85 15.72 19.58 14.92 21.38 13.6C21.4 13.59 21.41 13.57 21.41 13.55C21.85 9.02 20.68 5.09 18.31 1.6C18.3 1.59 18.29 1.58 18.27 1.58ZM7.52 11.16C6.49 11.16 5.63 10.21 5.63 9.04C5.63 7.87 6.47 6.92 7.52 6.92C8.58 6.92 9.42 7.88 9.41 9.04C9.41 10.21 8.57 11.16 7.52 11.16ZM14.49 11.16C13.46 11.16 12.6 10.21 12.6 9.04C12.6 7.87 13.44 6.92 14.49 6.92C15.55 6.92 16.39 7.88 16.38 9.04C16.38 10.21 15.55 11.16 14.49 11.16Z" fill="black"/>
</svg>
