<svg width="20" height="20" viewBox="0 0 20 20" fill="none" xmlns="http://www.w3.org/2000/svg">
<path d="M10 0.25C8.68678 0.25 7.38642 0.508658 6.17317 1.0112C4.95991 1.51375 3.85752 2.25035 2.92893 3.17893C1.05357 5.0543 0 7.59784 0 10.25C0 14.67 2.87 18.42 6.84 19.75C7.34 19.83 7.5 19.52 7.5 19.25V17.56C4.73 18.16 4.14 16.22 4.14 16.22C3.68 15.06 3.03 14.75 3.03 14.75C2.12 14.13 3.1 14.15 3.1 14.15C4.1 14.22 4.63 15.18 4.63 15.18C5.5 16.7 6.97 16.25 7.54 16.01C7.63 15.36 7.89 14.92 8.17 14.67C5.95 14.42 3.62 13.56 3.62 9.75C3.62 8.64 4 7.75 4.65 7.04C4.55 6.79 4.2 5.75 4.75 4.4C4.75 4.4 5.59 4.13 7.5 5.42C8.29 5.2 9.15 5.09 10 5.09C10.85 5.09 11.71 5.2 12.5 5.42C14.41 4.13 15.25 4.4 15.25 4.4C15.8 5.75 15.45 6.79 15.35 7.04C16 7.75 16.38 8.64 16.38 9.75C16.38 13.57 14.04 14.41 11.81 14.66C12.17 14.97 12.5 15.58 12.5 16.51V19.25C12.5 19.52 12.66 19.84 13.17 19.75C17.14 18.41 20 14.67 20 10.25C20 8.93678 19.7413 7.63642 19.2388 6.42317C18.7362 5.20991 17.9997 4.10752 17.0711 3.17893C16.1425 2.25035 15.0401 1.51375 13.8268 1.0112C12.6136 0.508658 11.3132 0.25 10 0.25Z" fill="black"/>
</svg>
