<svg width="20" height="21" viewBox="0 0 20 21" fill="none" xmlns="http://www.w3.org/2000/svg">
<path d="M5.8 0.25H14.2C17.4 0.25 20 2.85 20 6.05V14.45C20 15.9883 19.3889 17.4635 18.3012 18.5512C17.2135 19.6389 15.7383 20.25 14.2 20.25H5.8C2.6 20.25 0 17.65 0 14.45V6.05C0 4.51174 0.61107 3.03649 1.69878 1.94878C2.78649 0.86107 4.26174 0.25 5.8 0.25ZM5.6 2.25C4.64522 2.25 3.72955 2.62928 3.05442 3.30442C2.37928 3.97955 2 4.89522 2 5.85V14.65C2 16.64 3.61 18.25 5.6 18.25H14.4C15.3548 18.25 16.2705 17.8707 16.9456 17.1956C17.6207 16.5205 18 15.6048 18 14.65V5.85C18 3.86 16.39 2.25 14.4 2.25H5.6ZM15.25 3.75C15.5815 3.75 15.8995 3.8817 16.1339 4.11612C16.3683 4.35054 16.5 4.66848 16.5 5C16.5 5.33152 16.3683 5.64946 16.1339 5.88388C15.8995 6.1183 15.5815 6.25 15.25 6.25C14.9185 6.25 14.6005 6.1183 14.3661 5.88388C14.1317 5.64946 14 5.33152 14 5C14 4.66848 14.1317 4.35054 14.3661 4.11612C14.6005 3.8817 14.9185 3.75 15.25 3.75ZM10 5.25C11.3261 5.25 12.5979 5.77678 13.5355 6.71447C14.4732 7.65215 15 8.92392 15 10.25C15 11.5761 14.4732 12.8479 13.5355 13.7855C12.5979 14.7232 11.3261 15.25 10 15.25C8.67392 15.25 7.40215 14.7232 6.46447 13.7855C5.52678 12.8479 5 11.5761 5 10.25C5 8.92392 5.52678 7.65215 6.46447 6.71447C7.40215 5.77678 8.67392 5.25 10 5.25ZM10 7.25C9.20435 7.25 8.44129 7.56607 7.87868 8.12868C7.31607 8.69129 7 9.45435 7 10.25C7 11.0456 7.31607 11.8087 7.87868 12.3713C8.44129 12.9339 9.20435 13.25 10 13.25C10.7956 13.25 11.5587 12.9339 12.1213 12.3713C12.6839 11.8087 13 11.0456 13 10.25C13 9.45435 12.6839 8.69129 12.1213 8.12868C11.5587 7.56607 10.7956 7.25 10 7.25Z" fill="black"/>
</svg>
