<svg width="208" height="81" viewBox="0 0 208 81" fill="none" xmlns="http://www.w3.org/2000/svg">
<g clip-path="url(#clip0_62_4)">
<path d="M49.3725 0.5C41.2496 0.5 33.4595 3.7268 27.7157 9.47056L8.97056 28.2157C3.2268 33.9595 0 41.7496 0 49.8725C0 66.7877 13.7124 80.5 30.6275 80.5C38.7504 80.5 46.5405 77.2731 52.2843 71.5293L65.2504 58.5632C65.2504 58.5629 65.2507 58.5635 65.2504 58.5632L103.029 20.7843C105.773 18.0411 109.493 16.5 113.373 16.5C119.867 16.5 125.374 20.7331 127.283 26.5909L139.206 14.6679C133.767 6.14891 124.229 0.5 113.373 0.5C105.25 0.5 97.4595 3.7268 91.7157 9.47056L40.9707 60.2157C38.2275 62.9589 34.5069 64.5 30.6275 64.5C22.5489 64.5 16 57.9512 16 49.8725C16 45.9931 17.5411 42.2725 20.2843 39.5293L39.0293 20.7843C41.7725 18.0411 45.4931 16.5 49.3725 16.5C55.8677 16.5 61.3739 20.7333 63.2829 26.5912L75.2061 14.6682C69.7669 6.14907 60.2296 0.5 49.3725 0.5Z" fill="black"/>
<path d="M104.971 60.2157C102.228 62.9589 98.5071 64.5 94.6277 64.5C88.1335 64.5 82.6277 60.268 80.7181 54.4112L68.7954 66.3339C74.2349 74.8517 83.7717 80.5 94.6277 80.5C102.751 80.5 110.541 77.2731 116.284 71.5293L167.03 20.7843C169.773 18.0411 173.493 16.5 177.373 16.5C185.451 16.5 192 23.0489 192 31.1275C192 35.0069 190.459 38.7275 187.716 41.4707L168.971 60.2157C166.228 62.9589 162.507 64.5 158.628 64.5C152.133 64.5 146.627 60.2672 144.718 54.4099L132.795 66.3328C138.234 74.8515 147.771 80.5 158.628 80.5C166.751 80.5 174.541 77.2731 180.284 71.5293L199.03 52.7843C204.773 47.0405 208 39.2504 208 31.1275C208 14.2124 194.288 0.5 177.373 0.5C169.25 0.5 161.46 3.7268 155.716 9.47056L104.971 60.2157Z" fill="black"/>
</g>
<defs>
<clipPath id="clip0_62_4">
<rect width="208" height="80" fill="white" transform="translate(0 0.5)"/>
</clipPath>
</defs>
</svg>
