<svg width="20" height="21" viewBox="0 0 20 21" fill="none" xmlns="http://www.w3.org/2000/svg">
<path d="M10 1.25H10.393C9.10834 2.44371 8.28259 4.04985 8.05929 5.78923C7.83598 7.5286 8.22925 9.29124 9.17073 10.7707C10.1122 12.2502 11.5424 13.353 13.2126 13.8875C14.8828 14.4219 16.6875 14.3542 18.313 13.696C17.6877 15.2005 16.6658 16.507 15.3562 17.4763C14.0466 18.4455 12.4984 19.041 10.8769 19.1994C9.25537 19.3577 7.62126 19.073 6.14888 18.3754C4.67651 17.6779 3.42111 16.5937 2.51658 15.2386C1.61206 13.8835 1.09235 12.3083 1.01288 10.681C0.933415 9.05366 1.29718 7.4353 2.06537 5.99852C2.83356 4.56174 3.97736 3.36043 5.37476 2.52274C6.77216 1.68505 8.37075 1.2424 10 1.242V1.25Z" stroke="black" stroke-width="2" stroke-linecap="round" stroke-linejoin="round"/>
</svg>
