<svg width="20" height="21" viewBox="0 0 20 21" fill="none" xmlns="http://www.w3.org/2000/svg">
<path d="M1 10.25H2M10 1.25V2.25M18 10.25H19M10 18.25V19.25M3.6 3.85L4.3 4.55M16.4 3.85L15.7 4.55M15.7 15.95L16.4 16.65M4.3 15.95L3.6 16.65M6 10.25C6 11.3109 6.42143 12.3283 7.17157 13.0784C7.92172 13.8286 8.93913 14.25 10 14.25C11.0609 14.25 12.0783 13.8286 12.8284 13.0784C13.5786 12.3283 14 11.3109 14 10.25C14 9.18913 13.5786 8.17172 12.8284 7.42157C12.0783 6.67143 11.0609 6.25 10 6.25C8.93913 6.25 7.92172 6.67143 7.17157 7.42157C6.42143 8.17172 6 9.18913 6 10.25Z" stroke="black" stroke-width="2" stroke-linecap="round" stroke-linejoin="round"/>
</svg>
